<svg xmlns="http://www.w3.org/2000/svg" xmlns:xlink="http://www.w3.org/1999/xlink" width="270" height="24" class="svg"><title>badge-for-git. Style: 12</title><desc>char-height: 24 char_width : 12 font-size  : 20</desc><path fill="#00E100" d="M29,0 41,12 29,24 17,12"></path><path fill="#434343" d="M0,0 24,0 12,12 24,24 0,24 12,12"></path><text fill="#FFF" x="18" y="19" font-family="DejaVu Sans Mono, Source code variable, monospace" font-size="20"></text><path fill="#00E100" d="M159,0 171,12 159,24 147,12"></path><path fill="#434343" d="M34,0 154,0 142,12 154,24 34,24 46,12"></path><text fill="#FFF" x="52" y="19" font-family="DejaVu Sans Mono, Source code variable, monospace" font-size="20">License</text><path fill="#00E100" d="M241,0 253,12 241,24 229,12"></path><path fill="#434343" d="M164,0 236,0 224,12 236,24 164,24 176,12"></path><text fill="#FFF" x="182" y="19" font-family="DejaVu Sans Mono, Source code variable, monospace" font-size="20">MIT</text><path fill="#434343" d="M246,0 270,0 258,12 270,24 246,24 258,12"></path><text fill="#FFF" x="264" y="19" font-family="DejaVu Sans Mono, Source code variable, monospace" font-size="20"></text></svg>
