<svg xmlns="http://www.w3.org/2000/svg" xmlns:xlink="http://www.w3.org/1999/xlink" width="507" height="11" class="svg"><title>badge-for-git. (line) Style: 5</title><desc>char-height: 11 char_width:6 font-size :10</desc><path fill="#CB0000" d="m0,5.5 a5.5,5.5 0 1,1 0,0.001 m16,0 a5.5,5.5 0 1,1 0,0.001 m16,0 a5.5,5.5 0 1,1 0,0.001 m16,0 a5.5,5.5 0 1,1 0,0.001 m16,0 a5.5,5.5 0 1,1 0,0.001 m16,0 a5.5,5.5 0 1,1 0,0.001 m16,0 a5.5,5.5 0 1,1 0,0.001 m16,0 a5.5,5.5 0 1,1 0,0.001 m16,0 a5.5,5.5 0 1,1 0,0.001 m16,0 a5.5,5.5 0 1,1 0,0.001 m16,0 a5.5,5.5 0 1,1 0,0.001 m16,0 a5.5,5.5 0 1,1 0,0.001 m16,0 a5.5,5.5 0 1,1 0,0.001 m16,0 a5.5,5.5 0 1,1 0,0.001 m16,0 a5.5,5.5 0 1,1 0,0.001 m16,0 a5.5,5.5 0 1,1 0,0.001 m16,0 a5.5,5.5 0 1,1 0,0.001 m16,0 a5.5,5.5 0 1,1 0,0.001 m16,0 a5.5,5.5 0 1,1 0,0.001 m16,0 a5.5,5.5 0 1,1 0,0.001 m16,0 a5.5,5.5 0 1,1 0,0.001 m16,0 a5.5,5.5 0 1,1 0,0.001 m16,0 a5.5,5.5 0 1,1 0,0.001 m16,0 a5.5,5.5 0 1,1 0,0.001 m16,0 a5.5,5.5 0 1,1 0,0.001 m16,0 a5.5,5.5 0 1,1 0,0.001 m16,0 a5.5,5.5 0 1,1 0,0.001 m16,0 a5.5,5.5 0 1,1 0,0.001 m16,0 a5.5,5.5 0 1,1 0,0.001 m16,0 a5.5,5.5 0 1,1 0,0.001 m16,0 a5.5,5.5 0 1,1 0,0.001 m16,0 a5.5,5.5 0 1,1 0,0.001 "></path></svg>
