<svg xmlns="http://www.w3.org/2000/svg" xmlns:xlink="http://www.w3.org/1999/xlink" width="555" height="29" class="svg"><title>badge-for-git. Style: 12</title><desc>char-height: 29 char_width : 15 font-size  : 25</desc><path fill="#00E100" d="M35,0 50,14.5 35,29 20,14.5"></path><path fill="#434343" d="M0,0 30,0 15,14.5 30,29 0,29 15,14.5"></path><text fill="#FFF" x="22.5" y="24" font-family="DejaVu Sans Mono, Source code variable, monospace" font-size="25"></text><path fill="#00E100" d="M75,0 90,14.5 75,29 60,14.5"></path><path fill="#434343" d="M40,0 70,0 55,14.5 70,29 40,29 55,14.5"></path><text fill="#FFF" x="62.5" y="24" font-family="DejaVu Sans Mono, Source code variable, monospace" font-size="25"></text><path fill="#00E100" d="M115,0 130,14.5 115,29 100,14.5"></path><path fill="#434343" d="M80,0 110,0 95,14.5 110,29 80,29 95,14.5"></path><text fill="#FFF" x="102.5" y="24" font-family="DejaVu Sans Mono, Source code variable, monospace" font-size="25"></text><path fill="#00E100" d="M440,0 455,14.5 440,29 425,14.5"></path><path fill="#434343" d="M120,0 435,0 420,14.5 435,29 120,29 135,14.5"></path><text fill="#FFF" x="142.5" y="24" font-family="DejaVu Sans Mono, Source code variable, monospace" font-size="25">pure-SVG-animation</text><path fill="#00E100" d="M480,0 495,14.5 480,29 465,14.5"></path><path fill="#434343" d="M445,0 475,0 460,14.5 475,29 445,29 460,14.5"></path><text fill="#FFF" x="467.5" y="24" font-family="DejaVu Sans Mono, Source code variable, monospace" font-size="25"></text><path fill="#00E100" d="M520,0 535,14.5 520,29 505,14.5"></path><path fill="#434343" d="M485,0 515,0 500,14.5 515,29 485,29 500,14.5"></path><text fill="#FFF" x="507.5" y="24" font-family="DejaVu Sans Mono, Source code variable, monospace" font-size="25"></text><path fill="#434343" d="M525,0 555,0 540,14.5 555,29 525,29 540,14.5"></path><text fill="#FFF" x="547.5" y="24" font-family="DejaVu Sans Mono, Source code variable, monospace" font-size="25"></text></svg>
